<svg width="28" height="30" viewBox="0 0 28 30" fill="none" xmlns="http://www.w3.org/2000/svg">
<path d="M23.8196 6.29331C21.6698 4.1435 18.9391 2.78606 15.9816 2.366L16.8472 1.5004C17.1904 1.15716 17.1904 0.600691 16.8472 0.257449C16.504 -0.0857349 15.9475 -0.0857349 15.6042 0.257449L13.3784 2.48325C13.0352 2.82643 13.0352 3.38296 13.3784 3.7262L15.6042 5.95194C15.7758 6.12356 16.0007 6.2094 16.2256 6.2094C16.4505 6.2094 16.6755 6.12356 16.847 5.95194C17.1903 5.60876 17.1903 5.05223 16.847 4.70899L16.3512 4.21317C21.9178 5.31122 26.1291 10.2292 26.1291 16.1129C26.1292 22.801 20.688 28.2422 13.9999 28.2422C7.31186 28.2422 1.87061 22.801 1.87061 16.113C1.87061 13.5609 2.65383 11.1197 4.13566 9.05319C5.58674 7.02954 7.58713 5.51952 9.92074 4.68643C10.3779 4.52319 10.6161 4.02034 10.4529 3.56313C10.2898 3.10598 9.7868 2.86774 9.32965 3.03093C6.6576 3.98489 4.36758 5.71317 2.70709 8.02885C1.00986 10.3958 0.112793 13.1913 0.112793 16.113C0.112793 19.8224 1.5573 23.3098 4.18025 25.9327C6.8032 28.5555 10.2905 30 13.9999 30C17.7093 30 21.1966 28.5555 23.8196 25.9326C26.4425 23.3097 27.887 19.8224 27.887 16.113C27.887 12.4036 26.4425 8.9162 23.8196 6.29331Z" fill="#BDBDBD"/>
<path d="M4.96973 16.113C4.96973 21.0922 9.02066 25.1432 14 25.1432C18.9792 25.1432 23.0301 21.0922 23.0301 16.113C23.0301 11.1338 18.9792 7.0827 14 7.0827C9.02061 7.0827 4.96973 11.1337 4.96973 16.113ZM14 8.84052C18.01 8.84052 21.2723 12.103 21.2723 16.1129C21.2723 20.1229 18.0099 23.3854 14 23.3854C9.98998 23.3854 6.72754 20.123 6.72754 16.113C6.72754 12.103 9.98992 8.84052 14 8.84052Z" fill="#BDBDBD"/>
<path d="M15.0733 15.2409C14.378 14.9951 13.61 14.6989 13.1857 14.3661C13.0794 14.2828 13.0341 14.0718 13.0754 13.8528C13.097 13.738 13.1976 13.3543 13.5841 13.238C14.2642 13.0331 14.7276 13.3025 14.8953 13.4278C15.2842 13.7185 15.8349 13.6389 16.1254 13.2501C16.4161 12.8613 16.3365 12.3105 15.9478 12.0199C15.7866 11.8995 15.3937 11.6418 14.8313 11.502V11.2661C14.8313 10.7807 14.4378 10.3872 13.9524 10.3872C13.467 10.3872 13.0735 10.7807 13.0735 11.2661V11.5561C12.1876 11.8245 11.5266 12.5793 11.348 13.5273C11.1828 14.404 11.4713 15.2554 12.1009 15.7492C12.7236 16.2376 13.6159 16.5901 14.4874 16.8981C15.1749 17.1411 15.1951 17.6676 15.146 17.9597C15.0641 18.4474 14.6537 18.9745 13.9466 18.9792C13.2082 18.984 12.9981 18.9508 12.4408 18.5862C12.0345 18.3203 11.4898 18.4342 11.2241 18.8405C10.9583 19.2468 11.0722 19.7914 11.4784 20.0572C12.0846 20.4538 12.5389 20.6267 13.0735 20.696V20.9597C13.0735 21.4451 13.467 21.8386 13.9524 21.8386C14.4378 21.8386 14.8313 21.4451 14.8313 20.9597V20.6061C15.2455 20.4801 15.6239 20.2649 15.9501 19.9653C16.4392 19.5159 16.7692 18.9071 16.8795 18.2511C17.1047 16.9121 16.3788 15.7024 15.0733 15.2409Z" fill="#BDBDBD"/>
</svg>
