<svg width="264" height="263" viewBox="0 0 264 263" fill="none" xmlns="http://www.w3.org/2000/svg">
    <circle cx="126.567" cy="141.54" r="90" transform="rotate(-27.5641 126.567 141.54)" fill="#F2F8F1"/>
    <path d="M216.755 80.9263C239.5 124.5 222.615 178.263 179.041 201.008C135.467 223.753 81.7045 206.868 58.9592 163.294C36.2139 119.72 53.099 65.9576 96.6732 43.2123C115.321 33.4782 135.835 31.0024 154.985 34.7706C169.621 37.6504 183.459 44.1769 195.06 53.8975" stroke="#FEC343" stroke-width="3" stroke-linecap="round"/>
    <g clip-path="url(#clip0)">
        <path d="M132 93.3755L100.754 110.687V145.311L132 162.622L163.246 145.311V110.687L132 93.3755Z" fill="#FEE4BB"/>
        <path d="M132 162.623L163.246 145.311V110.878L132 128.19V162.623Z" fill="#FED79A"/>
        <path d="M132 162.623L100.754 145.311V110.878L132 128.19V162.623Z" fill="#FED79A"/>
        <path d="M175.093 94.2151H165.394V103.914L175.093 94.2151Z" fill="#D5F3FF"/>
        <path d="M88.9073 161.784H98.6065V152.084L88.9073 161.784Z" fill="#D5F3FF"/>
        <path d="M107.004 131.969L117.352 137.668V129.412L107.004 123.713V131.969Z" fill="white"/>
        <path d="M132 164.176C132.793 164.176 133.587 163.976 134.31 163.575L162.741 147.823C164.257 146.983 165.198 145.385 165.198 143.653V112.346C165.198 110.613 164.257 109.015 162.741 108.176L134.31 92.4233C132.864 91.6219 131.136 91.6219 129.69 92.4233C129.69 92.4235 129.69 92.4235 129.69 92.4235L101.259 108.175C99.743 109.015 98.8016 110.613 98.8016 112.346V143.652C98.8016 145.385 99.743 146.983 101.259 147.823L129.69 163.575C130.413 163.976 131.206 164.176 132 164.176ZM159.597 110.898L132.012 126.182L120.367 119.562L147.8 104.362L159.597 110.898ZM160.848 144.407L133.953 159.308V129.572L161.293 114.424V143.652C161.293 143.966 161.123 144.255 160.848 144.407ZM131.582 95.8397C131.844 95.6944 132.156 95.6948 132.418 95.8397L143.77 102.13L116.389 117.3L104.771 110.695L131.582 95.8397ZM102.707 143.652V114.014L115.396 121.228C115.399 121.23 115.402 121.231 115.405 121.233L130.047 129.557V159.308L103.152 144.406C102.878 144.255 102.707 143.966 102.707 143.652Z" fill="#373737"/>
        <path d="M119.304 137.668V129.413C119.304 128.701 118.917 128.046 118.294 127.702L107.946 122.003C107.341 121.67 106.605 121.681 106.01 122.032C105.415 122.384 105.051 123.023 105.051 123.714V131.969C105.051 132.681 105.438 133.336 106.061 133.68L116.409 139.379C116.703 139.54 117.027 139.621 117.351 139.621C117.695 139.621 118.039 139.53 118.345 139.349C118.94 138.998 119.304 138.359 119.304 137.668ZM115.399 134.363L108.957 130.816V127.019L115.399 130.567V134.363Z" fill="#373737"/>
        <path d="M126.44 148.349L121.266 145.499C120.322 144.979 119.134 145.323 118.614 146.268C118.093 147.212 118.437 148.4 119.382 148.92L124.556 151.77C124.855 151.935 125.178 152.013 125.496 152.013C126.185 152.013 126.853 151.647 127.209 151.002C127.729 150.057 127.385 148.869 126.44 148.349Z" fill="#373737"/>
        <path d="M172.871 99.1989L176.474 95.5958C177.032 95.0372 177.199 94.1974 176.897 93.4677C176.595 92.7382 175.883 92.2622 175.093 92.2622H165.394C164.315 92.2622 163.441 93.1366 163.441 94.2151V103.914C163.441 104.704 163.917 105.416 164.646 105.719C164.888 105.819 165.142 105.867 165.393 105.867C165.902 105.867 166.401 105.669 166.774 105.295L170.064 102.005C182.435 120.092 180.223 144.954 164.588 160.588C151.141 174.035 131.172 177.855 113.715 170.318C112.725 169.891 111.576 170.347 111.148 171.337C110.721 172.327 111.177 173.477 112.167 173.904C118.461 176.621 125.175 177.999 131.957 177.999C134.972 177.999 138 177.727 141.009 177.178C151.02 175.353 160.128 170.571 167.35 163.35C175.898 154.801 181.057 143.459 181.877 131.411C182.658 119.923 179.465 108.538 172.871 99.1989ZM167.347 96.1677H170.378L167.347 99.1993V96.1677Z" fill="#373737"/>
        <path d="M108.095 167.415L108.019 167.369C107.098 166.808 105.896 167.1 105.335 168.021C104.774 168.942 105.066 170.144 105.987 170.705L106.064 170.751C106.381 170.944 106.731 171.036 107.077 171.036C107.736 171.036 108.379 170.703 108.747 170.099C109.308 169.178 109.016 167.976 108.095 167.415Z" fill="#608929"/>
        <path d="M156.135 88.7246L156.232 88.7844C156.551 88.9809 156.905 89.0742 157.254 89.0742C157.909 89.0742 158.55 88.7442 158.919 88.1447C159.484 87.2262 159.197 86.0234 158.279 85.458L158.182 85.3983C157.264 84.8328 156.061 85.1192 155.496 86.0379C154.93 86.9563 155.217 88.1594 156.135 88.7246Z" fill="#608929"/>
        <path d="M99.3536 150.28C98.6239 149.978 97.7837 150.145 97.2255 150.704L93.9355 153.994C81.5644 135.906 83.7769 111.045 99.4114 95.4107C112.824 81.998 132.753 78.1613 150.184 85.637C151.175 86.0622 152.323 85.6031 152.748 84.612C153.174 83.621 152.715 82.4728 151.723 82.0476C142.643 78.1533 132.687 77.0412 122.933 78.831C112.945 80.6642 103.857 85.4421 96.6497 92.6489C88.1013 101.197 82.9423 112.54 82.1228 124.588C81.3418 136.076 84.5353 147.461 91.1294 156.8L87.5263 160.403C86.9679 160.961 86.8009 161.801 87.1029 162.531C87.4052 163.26 88.1171 163.736 88.9072 163.736H98.6064C99.6847 163.736 100.559 162.862 100.559 161.783V152.084C100.559 151.295 100.083 150.582 99.3536 150.28ZM96.6534 159.831H93.6218L96.6534 156.799V159.831Z" fill="#373737"/>
        <path d="M148.013 140.058C149.387 137.477 150.829 131.229 145.609 126.876C144.26 129.264 142.852 135.244 148.013 140.058Z" fill="#66B394"/>
        <path d="M148.603 140.376C149.028 138.08 151.235 133.455 156.664 133.331C156.319 135.495 154.225 139.934 148.603 140.376Z" fill="#66B394"/>
        <path d="M148.574 141.001C149.972 140.829 153.032 141.259 154.088 144.359C152.781 144.553 149.848 144.154 148.574 141.001Z" fill="#66B394"/>
        <path d="M147.635 140.56C146.399 138.578 142.652 135.084 137.554 136.957C138.668 138.845 142.243 142.207 147.635 140.56Z" fill="#66B394"/>
        <path d="M147.887 141.13C146.345 141.551 143.3 143.355 143.454 147.202C144.91 146.844 147.834 145.128 147.887 141.13Z" fill="#66B394"/>
    </g>
    <defs>
        <clipPath id="clip0">
            <rect width="100" height="100" fill="white" transform="translate(82 77.9995)"/>
        </clipPath>
    </defs>
</svg>
