<svg width="17" height="19" viewBox="0 0 17 19" fill="none" xmlns="http://www.w3.org/2000/svg">
<path d="M16.5986 6.9045C16.3464 6.65227 15.9375 6.65227 15.6853 6.9045L7.94778 14.6421L4.97361 11.6679C4.72141 11.4157 4.31252 11.4157 4.06026 11.6679C3.80804 11.9201 3.80804 12.329 4.06026 12.5812L7.4911 16.012C7.74323 16.2642 8.15243 16.264 8.40445 16.012L16.5986 7.81785C16.8508 7.56565 16.8508 7.15673 16.5986 6.9045Z" fill="#8CC63F"/>
<path fill-rule="evenodd" clip-rule="evenodd" d="M13.6363 6.73462C13.4141 5.86768 12.6279 5.23291 11.699 5.23291H2.6088C1.55267 5.23291 0.678575 6.05408 0.612696 7.10815L0.00397442 16.8477C-0.0679878 17.9991 0.846436 18.9725 2.00008 18.9725H12.3137C13.4773 18.9725 14.3952 17.9831 14.3081 16.8228L13.9759 12.3953L13.0431 13.3281L13.3109 16.8976C13.3545 17.4778 12.8955 17.9725 12.3137 17.9725H2.00008C1.42326 17.9725 0.966046 17.4858 1.00203 16.9101L1.61075 7.17053C1.64369 6.6435 2.08074 6.23291 2.6088 6.23291H11.699C12.2337 6.23291 12.6739 6.6536 12.698 7.18779L12.719 7.65198L13.6363 6.73462Z" fill="#8CC63F"/>
<path d="M10.2358 7.36464V4.18237C10.2358 2.4248 8.81104 1 7.05347 1V1C5.29589 1 3.87109 2.4248 3.87109 4.18237V7.36464" stroke="#8CC63F" stroke-linecap="round"/>
</svg>
