<svg width="198" height="197" viewBox="0 0 198 197" fill="none" xmlns="http://www.w3.org/2000/svg">
    <circle cx="108" cy="90" r="90" fill="#F2F8F1"/>
    <circle cx="89" cy="108" r="87.5" stroke="#FEC343" stroke-width="3"/>
    <g clip-path="url(#clip0)">
        <path d="M99 154.047C125.536 154.047 147.047 132.536 147.047 106C147.047 79.4644 125.536 57.9531 99 57.9531C72.4644 57.9531 50.9531 79.4644 50.9531 106C50.9531 132.536 72.4644 154.047 99 154.047Z" fill="#FED79A"/>
        <path d="M99 154.047C110.003 154.047 118.922 132.536 118.922 106C118.922 79.4644 110.003 57.9531 99 57.9531C87.9975 57.9531 79.0781 79.4644 79.0781 106C79.0781 132.536 87.9975 154.047 99 154.047Z" fill="#FEE4BB"/>
        <path d="M80.7106 129.863C80.7106 121.646 74.049 114.984 65.8318 114.984C57.6146 114.984 50.9531 121.646 50.9531 129.863C50.9531 133.425 52.2055 136.695 54.2932 139.256H54.2922L65.8318 154.047L77.3164 139.333H77.3078C79.4334 136.761 80.7106 133.461 80.7106 129.863Z" fill="#F2F8F1"/>
        <path d="M65.832 135.58C68.9893 135.58 71.5488 133.021 71.5488 129.863C71.5488 126.706 68.9893 124.146 65.832 124.146C62.6747 124.146 60.1152 126.706 60.1152 129.863C60.1152 133.021 62.6747 135.58 65.832 135.58Z" fill="white"/>
        <path d="M100.381 146.064C100.744 145.701 100.953 145.197 100.953 144.684C100.953 144.168 100.744 143.666 100.381 143.301C100.018 142.938 99.5137 142.729 99 142.729C98.4863 142.729 97.9824 142.938 97.6191 143.301C97.2559 143.666 97.0469 144.168 97.0469 144.684C97.0469 145.197 97.2559 145.701 97.6191 146.064C97.9824 146.428 98.4863 146.635 99 146.635C99.5137 146.635 100.018 146.428 100.381 146.064Z" fill="#373737"/>
        <path d="M99 56C85.6445 56 73.0885 61.201 63.6447 70.6447C54.201 80.0885 49 92.6445 49 106C49 107.706 49.0869 109.426 49.2586 111.114C49.3607 112.12 50.2094 112.87 51.1994 112.87C51.2654 112.87 51.3322 112.867 51.3992 112.86C52.4725 112.751 53.2539 111.793 53.1449 110.719C53.052 109.805 52.9893 108.88 52.9506 107.953H77.143C77.1678 109.473 77.2199 110.991 77.3021 112.485C77.3594 113.526 78.2211 114.331 79.2506 114.331C79.2867 114.331 79.323 114.33 79.3596 114.328C80.4367 114.269 81.2617 113.348 81.2025 112.271C81.1242 110.847 81.0746 109.401 81.05 107.953H97.0469V128.071H82.5672C81.6691 119.629 74.5072 113.031 65.8318 113.031C56.5508 113.031 49 120.582 49 129.863C49 133.705 50.3279 137.46 52.7408 140.443C52.7447 140.447 52.7484 140.453 52.7523 140.457L64.292 155.248C64.6621 155.722 65.2301 156 65.8316 156C66.4332 156 67.0012 155.723 67.3713 155.249L78.8559 140.535C78.8805 140.504 78.9039 140.472 78.9264 140.439C80.893 138.006 82.1367 135.064 82.5289 131.977H97.0469V137.652C97.0469 138.73 97.9213 139.605 99 139.605C100.079 139.605 100.953 138.73 100.953 137.652V131.977H113.744C113.033 134.559 112.211 136.988 111.283 139.226C107.892 147.404 103.415 152.094 99 152.094C94.8035 152.094 90.6471 148 87.2967 140.567C86.8535 139.583 85.6965 139.145 84.7135 139.589C83.7301 140.032 83.2922 141.188 83.7354 142.172C85.3891 145.841 87.2807 148.83 89.3396 151.08C86.6904 150.514 84.0939 149.717 81.567 148.684C80.568 148.275 79.4279 148.754 79.0199 149.752C78.6117 150.751 79.0902 151.891 80.0887 152.299C86.0945 154.755 92.4572 156 99 156C112.355 156 124.912 150.799 134.355 141.355C143.799 131.912 149 119.355 149 106C149 102.859 148.706 99.7135 148.127 96.6521C144 66.5 114.425 56 99 56ZM75.673 138.265L65.8322 150.872L55.8676 138.1C55.8482 138.074 55.8279 138.048 55.807 138.022C53.9365 135.727 52.9062 132.829 52.9062 129.863C52.9062 122.736 58.7047 116.938 65.8318 116.938C72.959 116.938 78.7574 122.736 78.7574 129.863C78.7574 132.861 77.7078 135.783 75.8021 138.089C75.7555 138.146 75.7125 138.204 75.673 138.265ZM139.457 128.07H118.702C120.004 121.867 120.743 115.038 120.858 107.953H145.049C144.745 115.216 142.754 122.049 139.457 128.07ZM145.051 104.047H100.953V83.9297H138.525C142 91 144.724 96.2486 145.051 104.047ZM122 67L131.5 72.7738L138.525 80.0234H100.953V60.2043C117.345 65.1911 116.975 65.4797 122 67ZM97.0469 60.2109V80.0234H84.2559C84.967 77.4412 85.7891 75.0125 86.7172 72.7738C89.608 65.802 93.2885 61.3678 97.0469 60.2109ZM89.315 60.9332C87.0039 63.4687 84.9057 66.9447 83.109 71.2775C81.9971 73.9594 81.0299 76.8935 80.2152 80.0232H60.9438C67.5061 70.4398 77.5895 63.4506 89.315 60.9332ZM58.5434 83.9297H79.2982C77.9963 90.133 77.2572 96.9615 77.1422 104.047H52.9506C53.2549 96.7844 55.2455 89.951 58.5434 83.9297ZM81.0488 104.047C81.168 96.9146 81.9377 90.074 83.2908 83.9297H97.0469V104.047H81.0488ZM100.953 128.07V107.953H116.951C116.832 115.085 116.062 121.926 114.709 128.07H100.953ZM108.685 151.067C110.996 148.531 113.094 145.055 114.891 140.722C116.003 138.041 116.97 135.106 117.785 131.977H137.056C130.494 141.56 120.411 148.549 108.685 151.067Z" fill="#373737"/>
        <path d="M65.8318 122.194C61.6027 122.194 58.1621 125.634 58.1621 129.863C58.1621 134.092 61.6027 137.533 65.8318 137.533C70.0607 137.533 73.5014 134.092 73.5014 129.863C73.5014 125.634 70.0609 122.194 65.8318 122.194ZM65.8318 133.626C63.7566 133.626 62.0684 131.938 62.0684 129.863C62.0684 127.788 63.7566 126.1 65.8318 126.1C67.907 126.1 69.5951 127.788 69.5951 129.863C69.5951 131.938 67.907 133.626 65.8318 133.626Z" fill="#66B394"/>
    </g>
    <path d="M98.9428 87.1566L99.713 88.2072L100.529 87.1917C103.246 83.8103 106.489 77.8151 107.476 70.719C108.467 63.5883 107.176 55.3422 100.797 47.5864L100.035 46.6602L99.2608 47.5761C94.0134 53.784 86.635 70.3657 98.9428 87.1566Z" fill="#66B394" stroke="#F2F8F1" stroke-width="2"/>
    <path d="M101.132 88.7702L99.8372 88.6286L100.309 87.4142C101.574 84.1546 104.447 79.4836 108.995 75.9409C113.571 72.3767 119.848 69.9556 127.826 71.2815L129.009 71.4782L128.603 72.6066C126.385 78.7704 117.791 90.5923 101.132 88.7702Z" fill="#66B394" stroke="#F2F8F1" stroke-width="2"/>
    <path d="M99.8427 89.7119L99.5883 88.4343L100.888 88.5187C103.054 88.6594 106.333 89.4836 109.263 91.5034C112.221 93.543 114.824 96.807 115.526 101.761L115.694 102.948L114.496 102.9C110.437 102.738 101.865 99.8669 99.8427 89.7119Z" fill="#66B394" stroke="#F2F8F1" stroke-width="2"/>
    <path d="M98.53 88.7702L99.825 88.6286L99.3534 87.4142C98.0879 84.1546 95.2152 79.4836 90.6668 75.9409C86.0909 72.3767 79.8136 69.9556 71.836 71.2815L70.653 71.4782L71.0591 72.6066C73.2773 78.7704 81.8707 90.5923 98.53 88.7702Z" fill="#66B394" stroke="#F2F8F1" stroke-width="2"/>
    <path d="M99.8195 89.7117L100.074 88.4341L98.7739 88.5185C96.6083 88.6592 93.3292 89.4833 90.3994 91.5031C87.4408 93.5428 84.838 96.8068 84.136 101.76L83.9677 102.948L85.166 102.9C89.2247 102.738 97.7975 99.8666 99.8195 89.7117Z" fill="#66B394" stroke="#F2F8F1" stroke-width="2"/>
    <defs>
        <clipPath id="clip0">
            <rect width="100" height="100" fill="white" transform="translate(49 56)"/>
        </clipPath>
    </defs>
</svg>
