<svg width="190" height="190" viewBox="0 0 190 190" fill="none" xmlns="http://www.w3.org/2000/svg">
<g clip-path="url(#clip0)">
<path d="M94.9996 39.1453C94.9996 39.1453 84.0278 55.0707 84.0278 74.7161C84.0278 78.4741 84.4316 82.0337 85.081 85.336C83.6449 83.3793 82.0098 81.4373 80.1458 79.5733C67.4281 66.8556 50.0156 63.6486 50.0156 63.6486C50.0156 63.6486 53.2226 81.061 65.9404 93.7788C69.2357 97.0741 72.7741 99.6573 76.2085 101.679C75.1802 101.585 74.1252 101.53 73.0431 101.53C60.3253 101.53 50.0156 108.633 50.0156 108.633C50.0156 108.633 60.3253 115.735 73.0431 115.735C76.6527 115.735 79.9811 115.162 82.8982 114.343C82.5168 114.675 82.1397 115.025 81.7694 115.395C75.9792 121.186 74.5189 129.113 74.5189 129.113C74.5189 129.113 88.2516 131.737 94.9992 118.992C101.747 131.738 115.48 129.113 115.48 129.113C115.48 129.113 114.019 121.186 108.229 115.395C107.859 115.025 107.481 114.675 107.1 114.343C110.018 115.162 113.346 115.735 116.955 115.735C129.673 115.735 139.983 108.633 139.983 108.633C139.983 108.633 129.673 101.53 116.955 101.53C115.873 101.53 114.818 101.585 113.79 101.679C117.224 99.6577 120.763 97.0741 124.058 93.7788C136.776 81.061 139.983 63.6486 139.983 63.6486C139.983 63.6486 122.57 66.8556 109.853 79.5733C107.989 81.4373 106.354 83.3793 104.917 85.336C105.567 82.0333 105.971 78.4741 105.971 74.7161C105.971 55.0707 94.9996 39.1453 94.9996 39.1453Z" fill="#CCF49F"/>
<path d="M144.107 187.217L110.415 168.053C105.717 165.38 100.405 163.975 94.9998 163.975C89.5948 163.975 84.2826 165.38 79.5842 168.053L45.8926 187.217H144.107Z" fill="#FED79A"/>
<path d="M88.4477 146.926C81.9298 140.408 71.947 140.921 71.947 140.921C71.947 140.921 71.4338 150.904 77.9517 157.422C84.4696 163.939 95.0012 163.975 95.0012 163.975C95.0012 163.975 94.9656 153.443 88.4477 146.926Z" fill="#95D6A4"/>
<path d="M101.554 146.926C108.071 140.408 118.054 140.921 118.054 140.921C118.054 140.921 118.567 150.904 112.05 157.422C105.532 163.939 95 163.975 95 163.975C95 163.975 95.0356 153.443 101.554 146.926Z" fill="#66B394"/>
<path d="M163.976 184.434H144.844L127.931 174.815C126.593 174.055 124.895 174.522 124.135 175.859C123.375 177.195 123.842 178.894 125.179 179.654L133.584 184.434H56.4161L80.9614 170.473C83.0933 169.26 85.3737 168.327 87.7342 167.702C90.1125 167.076 92.5573 166.758 95.0006 166.758C99.9124 166.758 104.767 168.043 109.041 170.473L113.89 173.23C115.228 173.991 116.926 173.523 117.686 172.186C118.446 170.85 117.978 169.151 116.642 168.391L111.792 165.634C110.51 164.905 109.185 164.262 107.825 163.708C109.988 162.665 112.14 161.269 114.019 159.39C121.327 152.081 120.858 141.236 120.835 140.778C120.762 139.353 119.623 138.215 118.198 138.141C117.742 138.118 106.895 137.648 99.5866 144.958C98.9282 145.616 98.3304 146.308 97.7845 147.022V126.909C102.515 130.939 108.2 132.153 112.472 132.153C113.813 132.153 115.016 132.034 116.005 131.844C117.508 131.557 118.496 130.111 118.219 128.606C118.169 128.337 117.241 123.488 114.107 118.41C115.061 118.483 116.013 118.52 116.959 118.52C130.388 118.52 141.114 111.236 141.564 110.926C142.318 110.407 142.769 109.55 142.769 108.634C142.769 107.719 142.318 106.862 141.564 106.342C141.176 106.075 133.135 100.613 122.307 99.1217C123.612 98.0481 124.854 96.9222 126.03 95.7469C126.569 95.2074 127.111 94.6389 127.641 94.0574C128.676 92.9211 128.593 91.1606 127.457 90.1256C126.321 89.0906 124.56 89.1726 123.525 90.3093C123.054 90.827 122.572 91.332 122.093 91.8107C119.27 94.6337 116.003 97.1474 112.38 99.2812C111.257 99.9433 110.744 101.296 111.145 102.536C111.547 103.776 112.753 104.57 114.053 104.45C115.018 104.36 115.995 104.314 116.959 104.314C124.027 104.314 130.378 106.724 134.302 108.634C130.377 110.544 124.026 112.953 116.959 112.953C113.966 112.953 110.904 112.519 107.856 111.662C106.605 111.31 105.275 111.872 104.655 113.016C104.036 114.16 104.292 115.58 105.271 116.437C105.621 116.743 105.946 117.046 106.263 117.363C109.231 120.332 110.941 123.999 111.852 126.544C108.068 126.417 101.701 125.095 97.7849 118.272V110.773L103.717 104.84C104.804 103.753 104.804 101.991 103.717 100.904C102.63 99.8167 100.868 99.8171 99.781 100.904L97.7849 102.9V94.9999C97.7849 93.4629 96.5391 92.2167 95.0017 92.2167C93.4646 92.2167 92.2185 93.4629 92.2185 94.9999V102.901L90.222 100.904C89.1351 99.8171 87.3727 99.8171 86.2862 100.904C85.1992 101.991 85.1992 103.753 86.2862 104.84L92.2185 110.772V118.272C88.2782 125.144 81.9173 126.449 78.1377 126.558C79.0391 124.022 80.7443 120.359 83.7405 117.363C84.06 117.043 84.384 116.74 84.7317 116.437C85.7117 115.581 85.9678 114.161 85.3484 113.016C84.7291 111.872 83.3991 111.309 82.1474 111.661C79.0996 112.518 76.0369 112.953 73.0444 112.953C65.9762 112.953 59.6253 110.543 55.7018 108.633C59.6264 106.723 65.977 104.314 73.0444 104.314C74.0085 104.314 74.986 104.36 75.9501 104.45C77.2482 104.571 78.4565 103.776 78.858 102.536C79.2595 101.296 78.7459 99.9429 77.6226 99.2809C74.0008 97.1471 70.7329 94.6333 67.9096 91.8104C59.7478 83.6485 55.6724 73.3013 53.9042 67.5353C59.6713 69.3039 70.0178 73.3796 78.1811 81.543C79.8384 83.1969 81.4052 85.0268 82.838 86.9813C83.6087 88.033 85.0067 88.4086 86.2008 87.8846C87.395 87.361 88.0652 86.0781 87.8136 84.7989C87.149 81.4194 86.812 78.0265 86.812 74.7152C86.812 61.7407 91.9172 50.3202 95.0021 44.6039C98.0873 50.3214 103.192 61.7414 103.192 74.7152C103.192 78.0265 102.855 81.419 102.191 84.7989C101.939 86.0785 102.609 87.361 103.804 87.8849C104.999 88.4086 106.396 88.033 107.167 86.981C108.598 85.0272 110.165 83.1977 111.826 81.5407C119.99 73.3759 130.342 69.3006 136.107 67.5331C135.124 70.7523 133.423 75.3965 130.696 80.2738C129.946 81.6153 130.426 83.3112 131.767 84.0616C133.109 84.8116 134.804 84.3321 135.554 82.9906C141.012 73.2308 142.656 64.5187 142.724 64.1528C142.889 63.2525 142.602 62.3281 141.954 61.6809C141.307 61.0337 140.383 60.7454 139.482 60.912C138.752 61.0463 121.796 64.2875 108.72 76.793C108.746 76.0979 108.759 75.4051 108.759 74.7152C108.759 54.4364 97.7626 38.246 97.2943 37.5669C96.7748 36.8132 95.9179 36.363 95.0024 36.363C94.0869 36.363 93.2301 36.8132 92.7106 37.5669C92.2426 38.2463 81.246 54.4368 81.246 74.7152C81.246 75.4051 81.2593 76.0983 81.2853 76.7933C68.208 64.2878 51.2523 61.0467 50.5224 60.9124C49.6218 60.7465 48.6977 61.0341 48.0502 61.6817C47.4026 62.3292 47.115 63.2532 47.2809 64.1539C47.4182 64.8994 50.7955 82.5687 63.9738 95.7469C65.1491 96.9222 66.3915 98.0481 67.6962 99.1217C56.8692 100.613 48.8276 106.074 48.4391 106.342C47.6854 106.862 47.2349 107.719 47.2349 108.634C47.2349 109.55 47.685 110.407 48.4391 110.926C48.8888 111.236 59.6157 118.52 73.0444 118.52C73.9907 118.52 74.9422 118.483 75.8963 118.41C72.762 123.488 71.8339 128.337 71.7842 128.606C71.5066 130.111 72.4956 131.557 73.9982 131.845C78.137 132.637 86.0019 132.204 92.2185 126.908V147.024C91.6726 146.31 91.0748 145.618 90.4168 144.96C83.1096 137.648 72.2651 138.117 71.8068 138.14C70.3826 138.213 69.2441 139.351 69.1702 140.775C69.1647 140.882 69.0415 143.432 69.6872 146.818C69.9748 148.328 71.4332 149.319 72.942 149.031C74.452 148.743 75.4428 147.286 75.1549 145.776C75.022 145.078 74.9292 144.425 74.8647 143.841C77.9258 144.183 82.8884 145.302 86.4803 148.896C90.0676 152.483 91.4132 157.632 91.9175 160.891C88.7384 160.399 83.7672 159.107 80.1962 155.719C79.0807 154.661 77.3198 154.707 76.2615 155.822C75.2035 156.937 75.2495 158.699 76.3646 159.757C78.1503 161.451 80.1583 162.734 82.1771 163.708C80.8166 164.263 79.4911 164.907 78.2104 165.635L45.1579 184.434H26.0254C24.4883 184.434 23.2422 185.68 23.2422 187.217C23.2422 188.754 24.4883 190 26.0254 190H163.976C165.513 190 166.759 188.754 166.759 187.217C166.759 185.68 165.513 184.434 163.976 184.434ZM103.522 148.893C107.113 145.302 112.074 144.184 115.134 143.842C114.791 146.903 113.673 151.863 110.082 155.454C106.494 159.042 101.344 160.388 98.0847 160.891C98.5887 157.63 99.9343 152.481 103.522 148.893Z" fill="#373737"/>
</g>
<defs>
<clipPath id="clip0">
<rect width="190" height="190" fill="white"/>
</clipPath>
</defs>
</svg>
