<svg width="20" height="20" viewBox="0 0 20 20" fill="none" xmlns="http://www.w3.org/2000/svg">
<path d="M10 0C4.47734 0 0 4.47714 0 10C0 15.5229 4.47734 20 10 20C15.5227 20 20 15.5229 20 10C20 4.47714 15.5227 0 10 0ZM11.1507 13.3215C10.2257 13.3215 9.3557 12.8215 9.0578 12.2537C9.0578 12.2537 8.5602 14.2271 8.45565 14.6079C8.0847 15.9542 6.99355 17.3009 6.90864 17.4111C6.84951 17.4879 6.71877 17.4639 6.70527 17.362C6.68215 17.1906 6.40348 15.4922 6.73125 14.107C6.89514 13.4114 7.83263 9.43918 7.83263 9.43918C7.83263 9.43918 7.55969 8.89227 7.55969 8.08368C7.55969 6.81412 8.29545 5.86639 9.21166 5.86639C9.99059 5.86639 10.3666 6.45135 10.3666 7.15253C10.3666 7.93575 9.86823 9.1069 9.61105 10.1921C9.39601 11.1008 10.0663 11.842 10.9625 11.842C12.5856 11.842 13.678 9.75754 13.678 7.28736C13.678 5.41033 12.4143 4.00471 10.1142 4.00471C7.51632 4.00471 5.89627 5.94251 5.89627 8.10742C5.89627 8.8534 6.11683 9.38025 6.46179 9.78721C6.61995 9.97442 6.64245 10.0497 6.58496 10.2646C6.54343 10.4223 6.44992 10.8016 6.41023 10.9516C6.35315 11.1689 6.1776 11.2462 5.98097 11.1662C4.78486 10.6779 4.22711 9.36716 4.22711 7.89381C4.22711 5.46046 6.27908 2.54261 10.3493 2.54261C13.6198 2.54261 15.7725 4.90905 15.7725 7.44982C15.7727 10.811 13.904 13.3215 11.1507 13.3215Z" fill="#373737"/>
</svg>
