<svg width="17" height="17" viewBox="0 0 17 17" xmlns="http://www.w3.org/2000/svg">
<path d="M16.8063 15.8717L12.6575 11.723C13.6888 10.4829 14.3101 8.8904 14.3101 7.15527C14.3101 3.20984 11.1003 0 7.15508 0C3.20974 0 0 3.20984 0 7.15527C0 11.1004 3.20974 14.31 7.15508 14.31C8.89011 14.31 10.4826 13.6888 11.7228 12.6576L15.8717 16.8064C16.0007 16.9355 16.1699 17 16.339 17C16.5081 17 16.6773 16.9355 16.8064 16.8064C17.0645 16.5483 17.0645 16.1298 16.8063 15.8717ZM1.3219 7.15527C1.3219 3.93874 3.93864 1.3219 7.15508 1.3219C10.3714 1.3219 12.9881 3.93874 12.9881 7.15527C12.9881 10.3715 10.3714 12.9881 7.15508 12.9881C3.93864 12.9881 1.3219 10.3715 1.3219 7.15527Z"/>
</svg>
