<svg width="16" height="16" viewBox="0 0 16 16" fill="none" xmlns="http://www.w3.org/2000/svg">
<path d="M7.82398 10.8736C9.30141 9.03473 11.3853 4.29814 7.90155 0.0624942C6.47298 1.75256 4.45746 6.28086 7.82398 10.8736Z" fill="#6FA4A9"/>
<path d="M8.24453 11.2151C8.92666 9.45821 11.3716 6.12409 15.694 6.84254C15.0953 8.50616 12.7672 11.7098 8.24453 11.2151Z" fill="#6FA4A9"/>
<path d="M8.12682 11.7058C9.26109 11.7795 11.6223 12.581 11.9931 15.1976C10.9276 15.1549 8.66266 14.3969 8.12682 11.7058Z" fill="#6FA4A9"/>
<path d="M7.44952 11.2151C6.76738 9.45821 4.32249 6.12409 0 6.84254C0.59871 8.50616 2.92681 11.7098 7.44952 11.2151Z" fill="#6FA4A9"/>
<path d="M7.56723 11.7058C6.43296 11.7795 4.07172 12.581 3.70092 15.1976C4.76642 15.1549 7.03139 14.3969 7.56723 11.7058Z" fill="#6FA4A9"/>
</svg>
