<svg width="22" height="22" viewBox="0 0 22 22" xmlns="http://www.w3.org/2000/svg">
<path d="M13.979 10.7578H12.2144V8.99324C12.2144 8.58877 11.8887 8.26305 11.4842 8.26305C11.0798 8.26305 10.7541 8.58877 10.7541 8.99324V10.7578H8.98946C8.585 10.7578 8.25928 11.0836 8.25928 11.488C8.25928 11.8925 8.585 12.2182 8.98946 12.2182H10.7541V13.9828C10.7541 14.3873 11.0798 14.713 11.4842 14.713C11.8887 14.713 12.2144 14.3873 12.2144 13.9828V12.2182H13.979C14.3835 12.2182 14.7092 11.8925 14.7092 11.488C14.7092 11.0836 14.3799 10.7578 13.979 10.7578Z" fill="#BDBDBD"/>
<path d="M11.4879 17.5048C8.16275 17.5048 5.46752 14.8131 5.46752 11.4879C5.46752 8.16275 8.16275 5.4711 11.4879 5.4711C14.8131 5.4711 17.5048 8.16633 17.5048 11.4879C17.5048 14.8095 14.8095 17.5048 11.4879 17.5048ZM17.9964 16.9656L17.2685 16.2413C18.3316 14.9491 18.9723 13.2919 18.9723 11.4879C18.9723 7.35382 15.6221 4 11.4844 4C7.34666 4 4 7.35382 4 11.4879C4 15.6221 7.35024 18.9759 11.4879 18.9759C13.2919 18.9759 14.9456 18.3388 16.2377 17.2757L16.9656 18C17.1517 18.1897 17.7208 18.2828 18 18C18.2828 17.7137 18.2828 17.2519 17.9964 16.9656Z" fill="#BDBDBD"/>
</svg>
