<svg width="16" height="16" viewBox="0 0 16 16" xmlns="http://www.w3.org/2000/svg">
    <path d="M7.93287 1.29736C9.11154 1.29736 10.2921 1.63193 11.3469 2.26498C12.0159 2.66752 12.6171 3.17342 13.1278 3.76416L11.3656 3.70604C11.1587 3.69912 10.9854 3.86143 10.9786 4.0685C10.9718 4.27545 11.134 4.44889 11.341 4.45557L13.7791 4.53607C13.9192 4.59373 14.0802 4.5615 14.1873 4.45428C14.2943 4.34705 14.3263 4.18604 14.2684 4.046L14.1881 1.6085C14.1834 1.40143 14.0117 1.23736 13.8047 1.24193C13.5977 1.24662 13.4334 1.4183 13.4381 1.62525C13.4381 1.62807 13.4381 1.63064 13.4383 1.63334L13.4847 3.03959C12.9689 2.48834 12.3793 2.01104 11.7328 1.62162C10.5615 0.918848 9.24748 0.547363 7.93287 0.547363C5.83287 0.547363 3.8967 1.41326 2.48178 2.98545C1.22834 4.37822 0.47998 6.25287 0.47998 8.00025C0.47998 8.20732 0.647793 8.37525 0.85498 8.37525C1.06217 8.37525 1.22998 8.20732 1.22998 8.00025C1.22998 6.43311 1.90627 4.74596 3.03924 3.48725C4.31025 2.07525 6.04803 1.29736 7.93287 1.29736Z" fill="#6FA4A9"/>
    <path d="M15.105 7.62549C14.8978 7.62549 14.73 7.7933 14.73 8.00049C14.73 9.56752 14.0537 11.2548 12.9207 12.5136C11.6497 13.9256 9.91192 14.7033 8.02708 14.7033C6.8484 14.7033 5.66786 14.3689 4.61305 13.7359C3.94403 13.3332 3.34286 12.8273 2.83215 12.2367L4.5943 12.2948C4.80126 12.3015 4.97458 12.1392 4.98137 11.9322C4.98817 11.7253 4.82598 11.552 4.61891 11.5451L2.18083 11.4647C2.04079 11.407 1.87977 11.4394 1.77266 11.5465C1.66567 11.6537 1.63368 11.8146 1.69157 11.9546L1.77184 14.3921C1.77653 14.5993 1.94821 14.7635 2.15528 14.7588C2.36223 14.7542 2.52653 14.5826 2.52184 14.3755C2.52184 14.3728 2.52184 14.3702 2.52161 14.3674L2.4752 12.9611C2.99106 13.5125 3.58063 13.9896 4.22715 14.3792C5.39844 15.0821 6.71247 15.4535 8.02708 15.4535C10.1271 15.4535 12.0632 14.5877 13.4782 13.0155C14.7316 11.6226 15.48 9.74799 15.48 8.00049C15.48 7.7933 15.3122 7.62549 15.105 7.62549Z" fill="#6FA4A9"/>
</svg>
