<svg width="92" height="56" viewBox="0 0 92 56" fill="none" xmlns="http://www.w3.org/2000/svg">
<path d="M0 56L-2.44784e-06 0L92 -4.02145e-06L79.5 28L92 56L0 56Z" fill="#E8F1F0"/>
<path d="M23.1934 29.5078V27.0273H29.3652V29.5078H23.1934ZM31.9277 23.9609V21.5L33.4121 20.3281H36.166V34H33.4121V23.9609H31.9277ZM42.0879 34C40.2259 34 39.054 32.7044 38.5723 30.1133C38.416 29.2539 38.3379 28.2708 38.3379 27.1641C38.3379 22.9974 39.3991 20.7318 41.5215 20.3672C41.7038 20.3411 41.8926 20.3281 42.0879 20.3281V22.9453C41.4238 23.1016 41.0592 24.0456 40.9941 25.7773C40.9811 26.0768 40.9746 26.4674 40.9746 26.9492V27.3789C40.9746 29.1758 41.1309 30.3346 41.4434 30.8555C41.6126 31.1419 41.8275 31.3177 42.0879 31.3828V34ZM43.1621 34V31.3828C43.8262 31.2266 44.1908 30.2826 44.2559 28.5508C44.2689 28.2513 44.2754 27.8607 44.2754 27.3789V26.9492C44.2754 25.1523 44.1191 23.9935 43.8066 23.4727C43.6374 23.1862 43.4225 23.0104 43.1621 22.9453V20.3281C45.0241 20.3281 46.196 21.6237 46.6777 24.2148C46.834 25.0742 46.9121 26.0573 46.9121 27.1641C46.9121 31.3307 45.8509 33.5964 43.7285 33.9609C43.5462 33.987 43.3574 34 43.1621 34ZM49.0059 22.7695C49.0059 22.0143 49.3184 21.4284 49.9434 21.0117C50.3079 20.7773 50.6986 20.6602 51.1152 20.6602C51.8704 20.6602 52.4564 20.9727 52.873 21.5977C53.1074 21.9622 53.2246 22.3529 53.2246 22.7695C53.2246 23.5247 52.9121 24.1107 52.2871 24.5273C51.9225 24.7617 51.5319 24.8789 51.1152 24.8789C50.36 24.8789 49.7741 24.5664 49.3574 23.9414C49.123 23.5768 49.0059 23.1862 49.0059 22.7695ZM51.623 34.4492L55.041 20.0156H57.502L54.1035 34.4492H51.623ZM56.0566 31.7148C56.0566 30.9596 56.3691 30.3737 56.9941 29.957C57.3587 29.7227 57.7493 29.6055 58.166 29.6055C58.9212 29.6055 59.5072 29.918 59.9238 30.543C60.1582 30.9076 60.2754 31.2982 60.2754 31.7148C60.2754 32.4701 59.9629 33.056 59.3379 33.4727C58.9733 33.707 58.5827 33.8242 58.166 33.8242C57.4108 33.8242 56.8249 33.5117 56.4082 32.8867C56.1738 32.5221 56.0566 32.1315 56.0566 31.7148Z" fill="#373737"/>
</svg>
