<svg width="50" height="89" viewBox="0 0 50 89" fill="none" xmlns="http://www.w3.org/2000/svg">
<path d="M5.4204e-07 2.86102e-06L50 7.92094e-08L50 89L25 81.2109L4.95163e-06 89L5.4204e-07 2.86102e-06Z" fill="#E8F1F0"/>
<path d="M10.8652 23.9609L10.8652 21.5L12.3496 20.3281L15.1035 20.3281L15.1035 34H12.3496L12.3496 23.9609H10.8652ZM21.0254 34C19.1634 34 17.9915 32.7044 17.5098 30.1133C17.3535 29.2539 17.2754 28.2708 17.2754 27.1641C17.2754 22.9974 18.3366 20.7318 20.459 20.3672C20.6413 20.3411 20.8301 20.3281 21.0254 20.3281V22.9453C20.3613 23.1016 19.9967 24.0456 19.9316 25.7773C19.9186 26.0768 19.9121 26.4674 19.9121 26.9492L19.9121 27.3789C19.9121 29.1758 20.0684 30.3346 20.3809 30.8555C20.5501 31.1419 20.765 31.3177 21.0254 31.3828V34ZM22.0996 34V31.3828C22.7637 31.2266 23.1283 30.2826 23.1934 28.5508C23.2064 28.2513 23.2129 27.8607 23.2129 27.3789L23.2129 26.9492C23.2129 25.1523 23.0566 23.9935 22.7441 23.4727C22.5749 23.1862 22.36 23.0104 22.0996 22.9453V20.3281C23.9616 20.3281 25.1335 21.6237 25.6152 24.2148C25.7715 25.0742 25.8496 26.0573 25.8496 27.1641C25.8496 31.3307 24.7884 33.5964 22.666 33.9609C22.4837 33.987 22.2949 34 22.0996 34ZM27.9434 22.7695C27.9434 22.0143 28.2559 21.4284 28.8809 21.0117C29.2454 20.7773 29.6361 20.6602 30.0527 20.6602C30.8079 20.6602 31.3939 20.9727 31.8105 21.5977C32.0449 21.9622 32.1621 22.3529 32.1621 22.7695C32.1621 23.5247 31.8496 24.1107 31.2246 24.5273C30.86 24.7617 30.4694 24.8789 30.0527 24.8789C29.2975 24.8789 28.7116 24.5664 28.2949 23.9414C28.0605 23.5768 27.9434 23.1862 27.9434 22.7695ZM30.5605 34.4492L33.9785 20.0156H36.4395L33.041 34.4492H30.5605ZM34.9941 31.7148C34.9941 30.9596 35.3066 30.3737 35.9316 29.957C36.2962 29.7227 36.6868 29.6055 37.1035 29.6055C37.8587 29.6055 38.4447 29.918 38.8613 30.543C39.0957 30.9076 39.2129 31.2982 39.2129 31.7148C39.2129 32.4701 38.9004 33.056 38.2754 33.4727C37.9108 33.707 37.5202 33.8242 37.1035 33.8242C36.3483 33.8242 35.7624 33.5117 35.3457 32.8867C35.1113 32.5221 34.9941 32.1315 34.9941 31.7148ZM13.3555 52.1914V45.7656C13.3555 45.0755 13.6484 44.3724 14.2344 43.6563C15.0156 42.7188 16.0052 42.2435 17.2031 42.2305V44.9844C16.6693 44.9974 16.3177 45.2969 16.1484 45.8828C16.1224 45.974 16.1094 46.0391 16.1094 46.0781L16.1094 52.1914C16.1094 52.7253 16.4023 53.0898 16.9883 53.2852C17.0794 53.3112 17.1445 53.3242 17.1836 53.3242V56.0977C16.4414 56.0977 15.6992 55.8307 14.957 55.2969C13.9023 54.5156 13.3685 53.4805 13.3555 52.1914ZM18.2578 56.0977V53.3242C18.4661 53.3242 18.7005 53.2135 18.9609 52.9922C19.2083 52.7708 19.3385 52.5039 19.3516 52.1914L19.3516 46.0781C19.3516 45.8438 19.2409 45.5964 19.0195 45.3359C18.8112 45.1146 18.5573 44.9974 18.2578 44.9844V42.2305C19.5729 42.2305 20.6276 42.7969 21.4219 43.9297C21.8776 44.5807 22.1055 45.1927 22.1055 45.7656L22.1055 52.1914C22.1055 53.6367 21.4609 54.7435 20.1719 55.5117C19.4948 55.9023 18.8568 56.0977 18.2578 56.0977ZM24.1406 48.4023V45.8633H25.5078V45.1016C25.5078 44.4896 25.7747 43.8646 26.3086 43.2266C26.9857 42.4323 27.819 42.0221 28.8086 41.9961H30.1172L29.5312 44.5156H28.8281C28.4375 44.5547 28.2031 44.75 28.125 45.1016V45.8633H29.5312V48.4023H28.125L28.125 56H25.5078L25.5078 48.4023H24.1406ZM31.4102 48.4023V45.8633H32.7773V45.1016C32.7773 44.4896 33.0443 43.8646 33.5781 43.2266C34.2552 42.4323 35.0885 42.0221 36.0781 41.9961H37.3867L36.8008 44.5156H36.0977C35.707 44.5547 35.4727 44.75 35.3945 45.1016V45.8633H36.8008V48.4023H35.3945V56H32.7773V48.4023H31.4102Z" fill="#373737"/>
</svg>
