<svg width="33" height="32" viewBox="0 0 33 32" fill="none" xmlns="http://www.w3.org/2000/svg">
<path d="M16.6697 22.3879C19.4399 18.9401 23.3472 10.059 16.8151 2.11718C14.1365 5.28604 10.3575 13.7766 16.6697 22.3879Z" stroke="#BDBDBD" stroke-width="2"/>
<path d="M17.4584 23.0281C18.7374 19.734 23.3216 13.4825 31.4263 14.8296C30.3037 17.9489 25.9385 23.9556 17.4584 23.0281Z" stroke="#BDBDBD" stroke-width="2"/>
<path d="M17.2372 23.9483C19.364 24.0864 23.7913 25.5893 24.4865 30.4953C22.4887 30.4154 18.2419 28.9942 17.2372 23.9483Z" stroke="#BDBDBD" stroke-width="2"/>
<path d="M15.9678 23.0281C14.6888 19.734 10.1047 13.4825 2 14.8296C3.12258 17.9489 7.48775 23.9556 15.9678 23.0281Z" stroke="#BDBDBD" stroke-width="2"/>
<path d="M16.189 23.9483C14.0623 24.0864 9.63499 25.5893 8.93973 30.4953C10.9375 30.4154 15.1843 28.9942 16.189 23.9483Z" stroke="#BDBDBD" stroke-width="2"/>
</svg>
