<svg width="30" height="30" viewBox="0 0 30 30" fill="none" xmlns="http://www.w3.org/2000/svg">
<g clip-path="url(#clip0)">
<path d="M22.1651 17.8362C20.1253 17.8362 18.4658 19.5325 18.4658 21.6177C18.4658 23.7029 20.1253 25.3992 22.1651 25.3992C24.2053 25.3992 25.8645 23.7029 25.8645 21.6177C25.8645 19.5325 24.205 17.8362 22.1651 17.8362ZM22.1651 23.5085C21.1451 23.5085 20.3155 22.6604 20.3155 21.6177C20.3155 20.575 21.1451 19.7269 22.1651 19.7269C23.1852 19.7269 24.0148 20.575 24.0148 21.6177C24.0148 22.6605 23.1852 23.5085 22.1651 23.5085Z" fill="#BDBDBD"/>
<path d="M9.52598 17.8362C7.48613 17.8362 5.82666 19.5325 5.82666 21.6177C5.82666 23.7029 7.48613 25.3992 9.52598 25.3992C11.5658 25.3992 13.2253 23.7029 13.2253 21.6177C13.2253 19.5325 11.5658 17.8362 9.52598 17.8362ZM9.52598 23.5085C8.50591 23.5085 7.67632 22.6604 7.67632 21.6177C7.67632 20.575 8.50591 19.7269 9.52598 19.7269C10.5458 19.7269 11.3756 20.575 11.3756 21.6177C11.3756 22.6605 10.546 23.5085 9.52598 23.5085Z" fill="#BDBDBD"/>
<path d="M24.6562 7.01218C24.499 6.69296 24.1793 6.49158 23.8298 6.49158H18.959V8.38234H23.2594L25.7777 13.5025L27.4307 12.6529L24.6562 7.01218Z" fill="#BDBDBD"/>
<path d="M19.3909 20.7038H12.3931V22.5946H19.3909V20.7038Z" fill="#BDBDBD"/>
<path d="M6.75143 20.7038H3.54541C3.03457 20.7038 2.62061 21.127 2.62061 21.6491C2.62061 22.1713 3.03463 22.5945 3.54541 22.5945H6.75148C7.26232 22.5945 7.67628 22.1713 7.67628 21.6491C7.67628 21.127 7.26226 20.7038 6.75143 20.7038Z" fill="#BDBDBD"/>
<path d="M29.1539 14.9243L27.3347 12.5294C27.16 12.2987 26.8902 12.1638 26.6044 12.1638H19.884V5.54618C19.884 5.02399 19.47 4.60083 18.9592 4.60083H3.54541C3.03457 4.60083 2.62061 5.02405 2.62061 5.54618C2.62061 6.06831 3.03463 6.49153 3.54541 6.49153H18.0344V13.1092C18.0344 13.6314 18.4484 14.0545 18.9592 14.0545H26.1515L27.4984 15.828V20.7037H24.9397C24.4289 20.7037 24.0149 21.1269 24.0149 21.649C24.0149 22.1712 24.4289 22.5944 24.9397 22.5944H28.4232C28.934 22.5944 29.348 22.1712 29.3481 21.649V15.5042C29.3481 15.2943 29.2796 15.0901 29.1539 14.9243Z" fill="#BDBDBD"/>
<path d="M6.68977 15.9138H2.43554C1.92471 15.9138 1.51074 16.337 1.51074 16.8592C1.51074 17.3814 1.92476 17.8045 2.43554 17.8045H6.68972C7.20055 17.8045 7.61452 17.3813 7.61452 16.8592C7.61458 16.337 7.20055 15.9138 6.68977 15.9138Z" fill="#BDBDBD"/>
<path d="M8.81667 12.1954H0.9248C0.414022 12.1954 0 12.6186 0 13.1408C0 13.663 0.414022 14.0861 0.9248 14.0861H8.81667C9.32751 14.0861 9.74147 13.6629 9.74147 13.1408C9.74147 12.6187 9.32751 12.1954 8.81667 12.1954Z" fill="#BDBDBD"/>
<path d="M10.3274 8.47693H2.43554C1.92471 8.47693 1.51074 8.90015 1.51074 9.42228C1.51074 9.94447 1.92476 10.3676 2.43554 10.3676H10.3274C10.8383 10.3676 11.2522 9.94441 11.2522 9.42228C11.2523 8.90015 10.8383 8.47693 10.3274 8.47693Z" fill="#BDBDBD"/>
</g>
<defs>
<clipPath id="clip0">
<rect width="29.3478" height="30" fill="white"/>
</clipPath>
</defs>
</svg>
