<svg width="12" height="12" viewBox="0 0 12 12" fill="none" xmlns="http://www.w3.org/2000/svg">
<g clip-path="url(#clip0)">
<path d="M8.7523 0H3.2489C1.45776 0 0.000610352 1.45715 0.000610352 3.24828V8.75178C0.000610352 10.5428 1.45776 12 3.2489 12H8.75239C10.5434 12 12.0006 10.5428 12.0006 8.75178V3.24828C12.0006 1.45715 10.5434 0 8.7523 0V0ZM6.0006 9.28114C4.19134 9.28114 2.71945 7.80925 2.71945 5.99999C2.71945 4.19073 4.19134 2.71884 6.0006 2.71884C7.80986 2.71884 9.28175 4.19073 9.28175 5.99999C9.28175 7.80925 7.80986 9.28114 6.0006 9.28114ZM9.36021 3.49264C8.82554 3.49264 8.39067 3.05776 8.39067 2.5231C8.39067 1.98843 8.82554 1.55346 9.36021 1.55346C9.89488 1.55346 10.3298 1.98843 10.3298 2.5231C10.3298 3.05776 9.89488 3.49264 9.36021 3.49264Z" fill="#E0E0E0"/>
<path d="M6.00058 3.42236C4.57931 3.42236 3.42291 4.57867 3.42291 6.00003C3.42291 7.42129 4.57931 8.57769 6.00058 8.57769C7.42193 8.57769 8.57824 7.42129 8.57824 6.00003C8.57824 4.57867 7.42193 3.42236 6.00058 3.42236Z" fill="#E0E0E0"/>
<path d="M9.36023 2.25708C9.21356 2.25708 9.09418 2.37646 9.09418 2.52313C9.09418 2.6698 9.21356 2.78918 9.36023 2.78918C9.50699 2.78918 9.62637 2.66989 9.62637 2.52313C9.62637 2.37637 9.50699 2.25708 9.36023 2.25708Z" fill="#E0E0E0"/>
</g>
<defs>
<clipPath id="clip0">
<rect width="12" height="12" fill="white" transform="translate(0.000610352)"/>
</clipPath>
</defs>
</svg>
