<svg width="12" height="12" viewBox="0 0 12 12" fill="none" xmlns="http://www.w3.org/2000/svg">
<g clip-path="url(#clip0)">
<path d="M11.997 12.0001V11.9996H12V7.59861C12 5.44561 11.5365 3.78711 9.01952 3.78711C7.80952 3.78711 6.99751 4.45111 6.66601 5.08061H6.63101V3.98811H4.24451V11.9996H6.72951V8.03261C6.72951 6.98811 6.92751 5.97811 8.22102 5.97811C9.49552 5.97811 9.51452 7.17011 9.51452 8.09961V12.0001H11.997Z" fill="#E0E0E0"/>
<path d="M0.197998 3.98853H2.686V12H0.197998V3.98853Z" fill="#E0E0E0"/>
<path d="M1.441 0C0.6455 0 0 0.6455 0 1.441C0 2.2365 0.6455 2.8955 1.441 2.8955C2.2365 2.8955 2.882 2.2365 2.882 1.441C2.8815 0.6455 2.236 0 1.441 0V0Z" fill="#E0E0E0"/>
</g>
<defs>
<clipPath id="clip0">
<rect width="12" height="12" fill="white"/>
</clipPath>
</defs>
</svg>
