<svg width="183" height="193" viewBox="0 0 183 193" fill="none" xmlns="http://www.w3.org/2000/svg">
    <circle cx="93" cy="103" r="90" fill="#F2F8F1"/>
    <circle cx="89" cy="89" r="87.5" stroke="#FEC343" stroke-width="3"/>
    <path d="M127.206 45.0497L93.157 45.0308C91.0193 45.0296 88.969 45.8783 87.4574 47.3897L38.3707 96.4765C35.2253 99.6218 35.2253 104.721 38.3707 107.867L72.1297 141.626C75.275 144.771 80.3745 144.771 83.5199 141.626L132.61 92.5353C134.12 91.0259 134.968 88.9792 134.969 86.8447L134.988 52.8407L127.206 45.0497Z" fill="#FED79A"/>
    <path d="M116.537 69.6903C119.977 69.6903 122.766 66.9013 122.766 63.461C122.766 60.0206 119.977 57.2317 116.537 57.2317C113.096 57.2317 110.307 60.0206 110.307 63.461C110.307 66.9013 113.096 69.6903 116.537 69.6903Z" fill="white"/>
    <path d="M118.51 84.931L95.0653 61.4864C92.7404 59.1614 88.9708 59.1614 86.6459 61.4864L49.5454 98.5869C47.2204 100.912 47.2204 104.681 49.5454 107.006L72.9899 130.451C75.3149 132.776 79.0844 132.776 81.4094 130.451L118.51 93.3504C120.835 91.0255 120.835 87.2559 118.51 84.931Z" fill="white"/>
    <path d="M65.1575 71.7012C65.6866 71.7012 66.2056 71.4859 66.5798 71.1117C66.9538 70.7376 67.1692 70.2185 67.1692 69.6895C67.1692 69.1604 66.954 68.6413 66.5798 68.2672C66.2056 67.893 65.6866 67.6777 65.1575 67.6777C64.6284 67.6777 64.1094 67.893 63.7352 68.2672C63.3612 68.6413 63.1458 69.1604 63.1458 69.6895C63.1458 70.2185 63.361 70.7376 63.7352 71.1117C64.1094 71.4861 64.6284 71.7012 65.1575 71.7012Z" fill="#373737"/>
    <path d="M133.924 48.9293L136.411 46.4427C137.196 45.6571 137.196 44.3833 136.411 43.5975C135.625 42.8119 134.352 42.8119 133.566 43.5975L131.08 46.0826L128.629 43.6287C128.252 43.2513 127.741 43.0388 127.207 43.0386L93.1582 43.0197C93.1562 43.0197 93.1544 43.0197 93.1526 43.0197C90.4639 43.0197 87.9362 44.0666 86.0349 45.9679L69.0439 62.9589C68.2584 63.7444 68.2584 65.0183 69.0439 65.804C69.8297 66.5896 71.1031 66.5896 71.8891 65.804L88.8801 48.8131C90.0215 47.6716 91.5386 47.0434 93.1526 47.0434C93.1538 47.0434 93.155 47.0434 93.156 47.0434L126.372 47.0619L128.236 48.9279L120.771 56.3922C117.606 54.4964 113.433 54.9098 110.709 57.634C109.152 59.1907 108.295 61.2602 108.295 63.4614C108.295 65.6626 109.152 67.7321 110.709 69.2887C112.315 70.8953 114.426 71.6986 116.536 71.6986C118.646 71.6986 120.757 70.8953 122.364 69.2887C125.084 66.5683 125.5 62.4036 123.614 59.24L131.079 51.7747L132.976 53.674L132.958 86.8446C132.957 88.4572 132.328 89.9734 131.188 91.1139L82.0974 140.204C80.9561 141.345 79.4387 141.974 77.8249 141.974C76.2111 141.974 74.6936 141.345 73.5524 140.204L39.7933 106.445C38.6519 105.304 38.0234 103.786 38.0234 102.172C38.0234 100.559 38.6519 99.0411 39.7933 97.8998L61.4785 76.2147C62.264 75.4291 62.264 74.1553 61.4785 73.3695C60.6927 72.5839 59.4193 72.5839 58.6333 73.3695L36.9482 95.0546C35.0471 96.9557 34 99.4836 34 102.172C34 104.861 35.0471 107.389 36.9482 109.29L70.7072 143.049C72.6697 145.011 75.2471 145.993 77.8249 145.993C80.4027 145.993 82.9801 145.011 84.9426 143.049L134.033 93.9587C135.933 92.059 136.979 89.5331 136.981 86.8464L137 52.8423C137 52.3088 136.789 51.797 136.412 51.4196L133.924 48.9293ZM119.518 66.4434C118.722 67.24 117.663 67.6788 116.536 67.6788C115.409 67.6788 114.35 67.24 113.554 66.4434C111.909 64.799 111.909 62.1232 113.554 60.4788C114.376 59.6564 115.456 59.2454 116.536 59.2454C116.943 59.2454 117.35 59.304 117.743 59.4207L115.421 61.7426C114.635 62.5282 114.635 63.802 115.421 64.5878C115.814 64.9806 116.328 65.177 116.843 65.177C117.358 65.177 117.873 64.9806 118.266 64.5878L120.581 62.2723C120.999 63.7044 120.646 65.3162 119.518 66.4434Z" fill="#373737"/>
    <path d="M45.7899 102.797C45.7899 104.924 46.6183 106.925 48.1229 108.429L71.5674 131.873C73.072 133.378 75.072 134.206 77.1996 134.206C79.3272 134.206 81.3277 133.378 82.8318 131.873L119.932 94.773C121.437 93.2684 122.265 91.2684 122.265 89.1408C122.265 87.0132 121.437 85.0129 119.932 83.5086L96.488 60.064C93.3823 56.9583 88.3287 56.9587 85.2234 60.064L48.1231 97.1645C46.6185 98.6689 45.7899 100.669 45.7899 102.797ZM50.968 100.01L88.0686 62.9092C88.837 62.1407 89.8463 61.7564 90.8558 61.7564C91.8651 61.7564 92.8745 62.1409 93.6428 62.9092L117.087 86.3535C117.832 87.0981 118.242 88.0878 118.242 89.1408C118.242 90.1935 117.832 91.1835 117.087 91.9278L79.9869 129.029C79.2425 129.773 78.2526 130.183 77.1998 130.183C76.1471 130.183 75.1571 129.773 74.4128 129.029L50.968 105.584C50.2235 104.84 49.8135 103.85 49.8135 102.797C49.8133 101.744 50.2235 100.754 50.968 100.01Z" fill="#373737"/>
    <path d="M76.3919 119.447C76.7848 119.84 77.2996 120.037 77.8144 120.037C78.3292 120.037 78.844 119.84 79.2369 119.447C80.0225 118.662 80.0225 117.388 79.2369 116.602L68.9045 106.27C68.1189 105.485 66.8455 105.484 66.0593 106.27C65.2738 107.055 65.2738 108.329 66.0593 109.115L76.3919 119.447Z" fill="#373737"/>
    <path d="M61.9709 104.194C62.502 104.194 63.019 103.979 63.393 103.605C63.7692 103.229 63.9845 102.712 63.9845 102.183C63.9845 101.652 63.7692 101.135 63.393 100.758C63.019 100.384 62.5018 100.169 61.9709 100.169C61.4419 100.169 60.9248 100.384 60.5486 100.758C60.1745 101.133 59.9592 101.652 59.9592 102.183C59.9592 102.712 60.1743 103.231 60.5486 103.605C60.9228 103.979 61.4419 104.194 61.9709 104.194Z" fill="#373737"/>
    <path d="M84.8342 95.3475C89.9526 94.6998 100.428 90.4153 101.384 78.4582C96.5688 78.9461 86.5172 83.007 84.8342 95.3475Z" fill="#66B394"/>
    <path d="M84.9769 96.5235C88.7197 94.7963 97.6322 93.2665 103.34 100.965C99.8705 102.672 91.34 104.174 84.9769 96.5235Z" fill="#66B394"/>
    <path d="M84.0462 97.1166C85.7185 98.9561 88.2151 103.805 84.8224 108.485C83.2109 106.799 80.7997 102.164 84.0462 97.1166Z" fill="#66B394"/>
    <path d="M83.7263 95.3156C85.3229 91.5153 86.5432 82.5551 78.6517 77.1171C77.0656 80.6439 75.8599 89.2212 83.7263 95.3156Z" fill="#66B394"/>
    <path d="M83.1658 96.2662C81.2695 94.6585 76.3371 92.3314 71.7777 95.8841C73.5186 97.4362 78.2335 99.6855 83.1658 96.2662Z" fill="#66B394"/>
</svg>
