<svg width="20" height="20" viewBox="0 0 20 20" fill="none" xmlns="http://www.w3.org/2000/svg">
<path d="M10 0C4.47714 0 0 4.47714 0 10C0 15.5229 4.47714 20 10 20C15.5229 20 20 15.5229 20 10C20 4.47714 15.5229 0 10 0ZM16.0471 7.3332C16.0518 7.45125 16.0542 7.56951 16.0542 7.68839C16.0542 11.9601 12.8037 16.3785 7.36409 16.3785C5.70128 16.3785 4.08225 15.904 2.68215 15.006C2.65289 14.9874 2.64082 14.9512 2.65248 14.9187C2.66414 14.8863 2.69708 14.8663 2.73084 14.8702C2.96573 14.8982 3.20593 14.9121 3.4443 14.9121C4.73801 14.9121 5.96276 14.5121 6.99867 13.7532C5.75693 13.6485 4.68972 12.8082 4.30588 11.6094C4.2979 11.5845 4.30363 11.5572 4.32082 11.5376C4.33821 11.518 4.36481 11.5094 4.39018 11.5141C4.73432 11.5793 5.08419 11.5836 5.42138 11.5288C4.14077 11.1308 3.24072 9.93125 3.24072 8.56552L3.24113 8.52583C3.24174 8.49985 3.25586 8.47611 3.27836 8.46322C3.30067 8.45013 3.32849 8.44992 3.351 8.46261C3.68491 8.64798 4.05442 8.76706 4.43356 8.81269C3.6976 8.22609 3.26547 7.33688 3.26547 6.38568C3.26547 5.83693 3.41074 5.2976 3.68573 4.82598C3.69801 4.80491 3.71969 4.79141 3.74384 4.78957C3.76818 4.78711 3.79171 4.79775 3.80706 4.81657C5.31335 6.66414 7.529 7.80174 9.89831 7.94803C9.85882 7.74916 9.83877 7.54414 9.83877 7.33729C9.83877 5.6266 11.2305 4.23509 12.941 4.23509C13.7819 4.23509 14.5946 4.58067 15.1771 5.18465C15.8337 5.05084 16.4591 4.80941 17.0369 4.46691C17.0633 4.45115 17.0965 4.45361 17.1208 4.47263C17.1446 4.49187 17.1544 4.52379 17.145 4.55325C16.9492 5.16563 16.5674 5.69985 16.0544 6.08552C16.5375 6.00143 17.0062 5.85944 17.4521 5.66159C17.4819 5.64788 17.5173 5.65647 17.5388 5.68164C17.5601 5.70701 17.5619 5.74322 17.5435 5.77064C17.1374 6.37852 16.6341 6.90414 16.0471 7.3332Z" fill="#373737"/>
</svg>
